# AST/ASF file generated using VICON BodyLanguage
# -----------------------------------------------
:version 1.10
:name VICON
:units
  mass 1.0
  length 0.45
  angle deg
:documentation
   .ast/.asf automatically generated from VICON data using
   VICON BodyBuilder and BodyLanguage model FoxedUp or BRILLIANT.MOD
:root
   order TX TY TZ RX RY RZ
   axis XYZ
   position 0 0 0  
   orientation 0 0 0 
:bonedata
  begin
     id 1 
     name lhipjoint
     direction 0.589753 -0.68606 0.426044 
     length 2.54082 
     axis 0 0 0  XYZ
  end
  begin
     id 2 
     name lfemur
     direction 0.34202 -0.939693 0  
     length 7.04539  
     axis 0 0 20  XYZ
    dof rx ry rz
    limits (-160.0 20.0)
           (-70.0 70.0)
           (-60.0 70.0)
  end
  begin
     id 3 
     name ltibia
     direction 0.34202 -0.939693 0   
     length 7.83772   
     axis 0 0 20   XYZ
    dof rx
    limits (-10.0 170.0)
  end
  begin
     id 4 
     name lfoot
     direction 0.0596604 -0.163915 0.984669   
     length 2.39542   
     axis -90 7.62852e-016 20   XYZ
    dof rx rz
    limits (-45.0 90.0)
           (-70.0 20.0)
  end
  begin
     id 5 
     name ltoes
     direction 1.53514e-011 -4.21954e-011 1   
     length 1.2047   
     axis -90 7.62852e-016 20   XYZ
    dof rx
    limits (-90.0 20.0)
  end
  begin
     id 6 
     name rhipjoint
     direction -0.580585 -0.69168 0.429534   
     length 2.52018  
     axis 0 0 0  XYZ 
  end
  begin
     id 7 
     name rfemur
     direction -0.34202 -0.939693 0   
     length 7.0101   
     axis 0 0 -20   XYZ
    dof rx ry rz
    limits (-160.0 20.0)
           (-70.0 70.0)
           (-70.0 60.0)
  end
  begin
     id 8 
     name rtibia
     direction -0.34202 -0.939693 0   
     length 7.70628   
     axis 0 0 -20   XYZ
    dof rx
    limits (-10.0 170.0)
 end
 begin
     id 9 
     name rfoot
     direction -0.0696237 -0.19129 0.979061   
     length 2.52466  
     axis -90 -7.62852e-016 -20   XYZ
    dof rx rz
    limits (-45.0 90.0)
           (-20.0 70.0)
  end
  begin
     id 10 
     name rtoes
     direction -1.53519e-011 -4.21793e-011 1   
     length 1.266   
     axis -90 -7.62852e-016 -20   XYZ
    dof rx
    limits (-90.0 20.0)
  end
  begin
     id 11 
     name lowerback
     direction 0.00381965 0.995707 -0.0924856   
     length 2.20825   
     axis 0 0 0   XYZ
    dof rx ry rz
    limits (-20.0 45.0)
           (-30.0 30.0)
           (-30.0 30.0)
  end
  begin
     id 12 
     name upperback
     direction -0.0139043 0.999634 -0.0231929   
     length 2.21517   
     axis 0 0 0   XYZ
    dof rx ry rz
    limits (-20.0 45.0)
           (-30.0 30.0)
           (-30.0 30.0)
  end
  begin
     id 13 
     name thorax
     direction -0.0143933 0.999691 0.0202892   
     length 2.22911   
     axis 0 0 0   XYZ
    dof rx ry rz
    limits (-20.0 45.0)
           (-30.0 30.0)
           (-30.0 30.0)
  end
  begin
     id 14 
     name lowerneck
     direction -0.0251153 0.981819 0.188153   
     length 1.61782   
     axis 0 0 0   XYZ
    dof rx ry rz
    limits (-20.0 45.0)
           (-30.0 30.0)
           (-30.0 30.0)
  end
  begin
     id 15 
     name upperneck
     direction 0.0563891 0.969357 -0.239095   
     length 1.64526   
     axis 0 0 0   XYZ
    dof rx ry rz
    limits (-20.0 45.0)
           (-30.0 30.0)
           (-30.0 30.0)
  end
  begin
     id 16
     name head
     direction 0.0208328 0.99459 -0.101773  
     length 1.67436  
     axis 0 0 0   XYZ
    dof rx ry rz
    limits (-20.0 45.0)
           (-30.0 30.0)
           (-30.0 30.0)
  end
  begin
     id 17 
     name lclavicle
     direction 0.917689 0.397224 0.00772059  
     length 3.31102  
     axis 0 0 0   XYZ
    dof ry rz
    limits (-20.0 10.0)
           (0.0 20.0)
  end
  begin
     id 18 
     name lhumerus
     direction 1 -4.4896e-011 2.32308e-027   
     length 5.25537   
     axis 180 -30 -90   XYZ
    dof rx ry rz
    limits (-60.0 90.0)
           (-90.0 90.0)
           (-90.0 90.0)
  end
  begin
     id 19
     name lradius
     direction 1 -4.49005e-011 -2.04271e-027   
     length 3.38855   
     axis 180 -30 -90   XYZ
    dof rx
    limits (-10.0 170.0)
  end
  begin
     id 20
     name lwrist
     direction 1 -4.48892e-011 2.56952e-028   
     length 1.69428   
     axis -5.12785e-016 90 90   XYZ
    dof ry
    limits (-180.0 0.0)
 end
  begin
     id 21 
     name lhand
     direction 1 -4.48966e-011 5.13905e-028   
     length 0.614516   
     axis -3.27915e-016 90 90   XYZ
    dof rx rz
    limits (-90.0 90.0)
           (-45.0 45.0)
  end
  begin
     id 22 
     name lfingers
     direction 1 -4.48979e-011 1.02781e-027   
     length 0.495439   
     axis -6.5583e-016 90 90   XYZ
    dof rx
    limits (0.0 90.0)
  end
  begin
     id 23
     name lthumb
     direction 0.707107 -6.35001e-011 0.707107   
     length 0.711354   
     axis -90 45 2.85299e-015   XYZ
    dof rx rz
    limits (-45.0 45.0)
           (-45.0 45.0)
  end
  begin
     id 24 
     name rclavicle
     direction -0.938556 0.342765 -0.0403177   
     length 3.27019  
     axis 0 0 0   XYZ 
    dof ry rz
    limits (-10.0 20.0)
           (-20.0 0.0)
  end
  begin
     id 25 
     name rhumerus
     direction -1 -4.48966e-011 2.52291e-027  
     length 5.38183   
     axis 180 30 90   XYZ
    dof rx ry rz
    limits (-90.0 60.0)
           (-90.0 90.0)
           (-90.0 90.0)
  end
  begin
     id 26 
     name rradius
     direction -1 -4.4896e-011 1.5797e-027   
     length 3.16988   
     axis 180 30 90   XYZ
    dof rx
    limits (-10.0 170.0)
  end
  begin
     id 27 
     name rwrist
     direction -1 -4.48947e-011 2.56952e-028   
     length 1.58494   
     axis -5.12785e-016 -90 -90   XYZ
    dof ry
    limits (-180.0 0.0)
  end
  begin
     id 28
     name rhand
     direction -1 -4.49098e-011 5.13905e-028   
     length 0.637679   
     axis -3.27915e-016 -90 -90   XYZ
    dof rx rz
    limits (-90.0 90.0)
           (-45.0 45.0)
  end
  begin
     id 29
     name rfingers
     direction -1 -4.49026e-011 1.02781e-027   
     length 0.514113   
     axis -6.5583e-016 -90 -90   XYZ
    dof rx
    limits (0.0 90.0)
  end
  begin
     id 30
     name rthumb
     direction -0.707107 -6.3491e-011 0.707107   
     length 0.738167   
     axis -90 -45 -2.85299e-015   XYZ
    dof rx rz
    limits (-45.0 45.0)
           (-45.0 45.0)
  end
:hierarchy
  begin
    root lhipjoint rhipjoint lowerback
    lhipjoint lfemur
    lfemur ltibia
    ltibia lfoot
    lfoot ltoes
    rhipjoint rfemur
    rfemur rtibia
    rtibia rfoot
    rfoot rtoes
    lowerback upperback
    upperback thorax
    thorax lowerneck lclavicle rclavicle
    lowerneck upperneck
    upperneck head
    lclavicle lhumerus
    lhumerus lradius
    lradius lwrist
    lwrist lhand lthumb
    lhand lfingers
    rclavicle rhumerus
    rhumerus rradius
    rradius rwrist
    rwrist rhand rthumb
    rhand rfingers
  end

#!OML:ASF H:\Swim\Project 1\Capture day 1\Session 1\swimmer.ASF
:FULLY-SPECIFIED
:DEGREES
535
root 4.71267 17.4768 0.650293 40.8836 -7.30619 -4.4152
lowerback 22.6223 1.84678 -0.524649
upperback 8.67991 1.9846 -3.34589
thorax -3.00952 0.985074 -3.78283
lowerneck -27.3305 1.08465 -1.63424
upperneck 25.824 1.223 3.14927
head 13.1901 0.815307 1.73982
rclavicle -4.53229e-014 5.62561e-014
rhumerus 21.6252 6.19991 -78.7523
rradius 37.4173
rwrist 0.463589
rhand -39.9611 15.2011
rfingers 7.12502
rthumb -12.9303 -14.3782
lclavicle -4.53229e-014 5.62561e-014
lhumerus 16.1948 -5.19161 74.464
lradius 47.7201
lwrist -13.8907
lhand -42.162 16.4913
lfingers 7.12502
lthumb -15.0512 45.9242
rfemur -37.5144 16.1849 8.55597
rtibia 27.368
rfoot -32.1755 -31.0353
rtoes 10.4884
lfemur -62.8263 -1.05064 -18.4722
ltibia 43.1246
lfoot -8.4893 1.31922
ltoes 2.28057
536
root 4.71602 17.4744 0.640638 40.9196 -7.33847 -4.47778
lowerback 22.5458 1.86806 -0.579301
upperback 8.66888 2.00188 -3.35384
thorax -2.98406 0.992773 -3.76141
lowerneck -27.3195 0.892677 -1.75094
upperneck 25.8777 0.941098 3.33833
head 13.2175 0.708864 1.78217
rclavicle -5.1684e-015 2.52457e-014
rhumerus 21.5508 5.76385 -79.3562
rradius 37.3803
rwrist 0.424074
rhand -39.4702 14.3106
rfingers 7.12502
rthumb -12.457 -15.2982
lclavicle -5.1684e-015 2.52457e-014
lhumerus 16.251 -5.19428 74.3688
lradius 47.6952
lwrist -13.7586
lhand -42.1559 16.3565
lfingers 7.12502
lthumb -15.0453 45.7898
rfemur -37.5901 16.2336 8.51438
rtibia 27.3835
rfoot -32.0426 -30.9228
rtoes 10.2854
lfemur -62.7041 -1.01745 -18.3992
ltibia 42.8555
lfoot -8.69318 1.32909
ltoes 2.60185
537
root 4.71947 17.4729 0.630284 40.9578 -7.36393 -4.5212
lowerback 22.4773 1.88428 -0.641821
upperback 8.6539 2.01105 -3.36211
thorax -2.96757 0.996341 -3.73431
lowerneck -27.3115 0.700566 -1.86294
upperneck 25.9181 0.661451 3.51336
head 13.2412 0.60199 1.81844
rclavicle 4.09496e-014 -3.77691e-015
rhumerus 21.5083 5.38232 -79.8713
rradius 37.2574
rwrist 0.851475
rhand -39.2036 13.8327
rfingers 7.12502
rthumb -12.2 -15.7915
lclavicle 4.09496e-014 -3.77691e-015
lhumerus 16.3025 -5.21497 74.2744
lradius 47.6778
lwrist -13.6802
lhand -42.1774 16.2871
lfingers 7.12502
lthumb -15.0661 45.7189
rfemur -37.6663 16.2624 8.4617
rtibia 27.3927
rfoot -31.9157 -30.8088
rtoes 10.0966
lfemur -62.5951 -0.984623 -18.3654
ltibia 42.5835
lfoot -8.87793 1.35011
ltoes 2.96511
538
root 4.72314 17.4717 0.619842 40.9846 -7.38415 -4.54586
lowerback 22.4268 1.89346 -0.711531
upperback 8.63958 2.00956 -3.36917
thorax -2.96028 0.994536 -3.69997
lowerneck -27.3068 0.512562 -1.97412
upperneck 25.9455 0.392911 3.67097
head 13.2608 0.497585 1.84957
rclavicle 3.57812e-015 -2.42517e-014
rhumerus 21.4919 5.04926 -80.3039
rradius 37.0855
rwrist 1.69126
rhand -39.1624 13.6833
rfingers 7.12502
rthumb -12.1603 -15.9433
lclavicle 3.57812e-015 -2.42517e-014
lhumerus 16.351 -5.24509 74.1833
lradius 47.6713
lwrist -13.635
lhand -42.2204 16.2934
lfingers 7.12502
lthumb -15.1075 45.722
rfemur -37.7279 16.2758 8.40113
rtibia 27.3993
rfoot -31.7972 -30.6976
rtoes 9.92116
lfemur -62.4824 -0.966757 -18.3628
ltibia 42.314
lfoot -9.04721 1.40517
ltoes 3.38708
539
root 4.72709 17.4706 0.609532 41.0003 -7.39448 -4.55671
lowerback 22.3945 1.90017 -0.767614
upperback 8.62623 2.00698 -3.38117
thorax -2.96031 0.992488 -3.67925
lowerneck -27.3022 0.322064 -2.07742
upperneck 25.9576 0.120625 3.81934
head 13.2752 0.391132 1.8747
rclavicle -3.33958e-014 5.1684e-015
rhumerus 21.4882 4.72798 -80.6648
rradius 36.8959
rwrist 2.86856
rhand -39.3278 13.694
rfingers 7.12502
rthumb -12.3198 -15.923
lclavicle -3.33958e-014 5.1684e-015
lhumerus 16.4067 -5.30793 74.0931
lradius 47.6765
lwrist -13.6238
lhand -42.2811 16.3551
lfingers 7.12502
lthumb -15.1659 45.7793
rfemur -37.7734 16.2745 8.34061
rtibia 27.4027
rfoot -31.6878 -30.5916
rtoes 9.76132
lfemur -62.3664 -0.96523 -18.3826
ltibia 42.0506
lfoot -9.20825 1.49355
ltoes 3.88171
